<svg xmlns="http://www.w3.org/2000/svg" viewBox="0 0 1440 900" preserveAspectRatio="xMidYMid slice">
<defs>
  <linearGradient id="bg-sports" x1="0" y1="0" x2="0" y2="1">
    <stop offset="0" stop-color="#86c8ef"/>
    <stop offset="1" stop-color="#3d7e55"/>
  </linearGradient>
  <linearGradient id="ground" x1="0" y1="0" x2="0" y2="1">
    <stop offset="0" stop-color="#ffffff" stop-opacity=".18"/>
    <stop offset="1" stop-color="#000000" stop-opacity=".18"/>
  </linearGradient>
  <linearGradient id="glass" x1="0" y1="0" x2="0" y2="1">
    <stop offset="0" stop-color="#ffffff" stop-opacity=".34"/>
    <stop offset="1" stop-color="#ffffff" stop-opacity=".05"/>
  </linearGradient>
  <filter id="shadow" x="-40%" y="-40%" width="180%" height="180%">
    <feDropShadow dx="0" dy="10" stdDeviation="8" flood-color="#000" flood-opacity=".25"/>
  </filter>
  <filter id="soft" x="-40%" y="-40%" width="180%" height="180%">
    <feGaussianBlur stdDeviation="18"/>
  </filter>
  <filter id="glow" x="-60%" y="-60%" width="220%" height="220%">
    <feGaussianBlur stdDeviation="10" result="b"/>
    <feMerge><feMergeNode in="b"/><feMergeNode in="SourceGraphic"/></feMerge>
  </filter>
</defs>
<rect width="1440" height="900" fill="url(#bg-sports)"/>
<rect x="0" y="540" width="1440" height="360" fill="#3f8a58"/>
<ellipse cx="720" cy="720" rx="520" ry="150" fill="#2f6a42"/>
<path d="M220 720 H1220 M720 570 V870" stroke="#fff" stroke-opacity=".75" stroke-width="8"/>
<path d="M120 760 Q260 610 500 620 H940 Q1180 625 1320 760" fill="none" stroke="#d45454" stroke-width="90"/>
<path d="M120 760 Q260 610 500 620 H940 Q1180 625 1320 760" fill="none" stroke="#f0d7d7" stroke-width="6" stroke-dasharray="35 30"/>
<g transform="translate(80 260)"><rect x="-9" y="0" width="18" height="290" fill="#556477"/><rect x="-60" y="0" width="120" height="20" rx="7" fill="#8aa1b7"/><circle cx="-34" cy="10" r="9" fill="#fff"/><circle cx="0" cy="10" r="9" fill="#fff"/><circle cx="34" cy="10" r="9" fill="#fff"/></g>
<g transform="translate(1360 260)"><rect x="-9" y="0" width="18" height="290" fill="#556477"/><rect x="-60" y="0" width="120" height="20" rx="7" fill="#8aa1b7"/><circle cx="-34" cy="10" r="9" fill="#fff"/><circle cx="0" cy="10" r="9" fill="#fff"/><circle cx="34" cy="10" r="9" fill="#fff"/></g>
<g transform="translate(520 430)"><rect x="0" y="0" width="400" height="110" rx="16" fill="#233548"/><text x="200" y="72" text-anchor="middle" font-size="54" font-family="Montserrat,Arial" font-weight="900" fill="#fff">QUIZZO CUP</text></g>
<g transform="translate(300 620) scale(0.95)">
<circle r="36" fill="#fff" stroke="#111" stroke-width="6"/>
<path d="M-32 -2 Q-7 -18 14 -8 Q28 4 34 18" fill="none" stroke="#333" stroke-width="5"/>
<path d="M-6 -34 Q4 -10 0 8 Q-2 20 -16 34" fill="none" stroke="#333" stroke-width="5"/>
</g>
<g transform="translate(1060 680) scale(0.85)">
<circle r="36" fill="#f39c35" stroke="#111" stroke-width="6"/>
<path d="M-32 -2 Q-7 -18 14 -8 Q28 4 34 18" fill="none" stroke="#333" stroke-width="5"/>
<path d="M-6 -34 Q4 -10 0 8 Q-2 20 -16 34" fill="none" stroke="#333" stroke-width="5"/>
</g>
<g transform="translate(720 760)"><path d="M-120 0 H120" stroke="#fff" stroke-width="16" stroke-linecap="round"/><circle cx="-60" cy="0" r="26" fill="#ffd452"/><circle cx="60" cy="0" r="26" fill="#e85a65"/></g>
<rect width="1440" height="900" fill="url(#ground)" opacity=".25"/>

<!-- detailed foreground particles and depth accents -->
<circle cx="739" cy="671" r="7" fill="#ff7ba7" opacity="0.25"/>
<circle cx="1180" cy="711" r="7" fill="#6fe0ff" opacity="0.7"/>
<circle cx="893" cy="42" r="7" fill="#ff7ba7" opacity="0.5"/>
<circle cx="453" cy="643" r="5" fill="#ffffff" opacity="0.25"/>
<circle cx="954" cy="542" r="4" fill="#ffffff" opacity="0.35"/>
<circle cx="1245" cy="117" r="3" fill="#ff7ba7" opacity="0.25"/>
<circle cx="96" cy="386" r="4" fill="#6fe0ff" opacity="0.7"/>
<circle cx="1151" cy="753" r="4" fill="#ffd452" opacity="0.5"/>
<circle cx="457" cy="429" r="7" fill="#ff7ba7" opacity="0.25"/>
<circle cx="420" cy="189" r="7" fill="#6fe0ff" opacity="0.7"/>
<circle cx="170" cy="650" r="5" fill="#6fe0ff" opacity="0.5"/>
<circle cx="507" cy="221" r="4" fill="#ff7ba7" opacity="0.35"/>
<circle cx="1005" cy="90" r="4" fill="#ff7ba7" opacity="0.7"/>
<circle cx="51" cy="767" r="7" fill="#ff7ba7" opacity="0.25"/>
<circle cx="55" cy="547" r="5" fill="#ffffff" opacity="0.35"/>
<circle cx="72" cy="331" r="2" fill="#ffd452" opacity="0.7"/>
<circle cx="100" cy="91" r="2" fill="#ffd452" opacity="0.5"/>
<circle cx="1385" cy="116" r="7" fill="#ffffff" opacity="0.7"/>
<circle cx="1399" cy="619" r="4" fill="#ffd452" opacity="0.5"/>
<circle cx="955" cy="582" r="5" fill="#ffffff" opacity="0.35"/>
<circle cx="780" cy="725" r="7" fill="#ffffff" opacity="0.25"/>
<circle cx="1337" cy="225" r="5" fill="#ffd452" opacity="0.35"/>
<circle cx="1168" cy="211" r="7" fill="#ffffff" opacity="0.5"/>
<circle cx="34" cy="624" r="4" fill="#ffd452" opacity="0.25"/>
<circle cx="332" cy="339" r="2" fill="#ff7ba7" opacity="0.5"/>
<circle cx="150" cy="254" r="7" fill="#ffffff" opacity="0.7"/>
<circle cx="728" cy="685" r="2" fill="#ffffff" opacity="0.7"/>
<circle cx="46" cy="710" r="5" fill="#6fe0ff" opacity="0.25"/>
<circle cx="261" cy="240" r="2" fill="#6fe0ff" opacity="0.5"/>
<circle cx="1229" cy="236" r="7" fill="#ffd452" opacity="0.35"/>
<circle cx="451" cy="339" r="2" fill="#ffffff" opacity="0.35"/>
<circle cx="1126" cy="738" r="3" fill="#ff7ba7" opacity="0.7"/>
<circle cx="1195" cy="144" r="2" fill="#ffd452" opacity="0.25"/>
<circle cx="363" cy="488" r="7" fill="#ffffff" opacity="0.7"/>
<circle cx="516" cy="493" r="2" fill="#ffffff" opacity="0.7"/>
<circle cx="924" cy="631" r="7" fill="#ffd452" opacity="0.35"/>
<circle cx="802" cy="402" r="4" fill="#ffffff" opacity="0.5"/>
<circle cx="716" cy="308" r="2" fill="#ffffff" opacity="0.7"/>
<circle cx="1039" cy="167" r="5" fill="#ffffff" opacity="0.25"/>
<circle cx="698" cy="325" r="4" fill="#ff7ba7" opacity="0.7"/>
<circle cx="1042" cy="255" r="3" fill="#6fe0ff" opacity="0.35"/>
<circle cx="934" cy="142" r="3" fill="#6fe0ff" opacity="0.35"/>
<circle cx="345" cy="287" r="7" fill="#ff7ba7" opacity="0.35"/>
<circle cx="887" cy="355" r="2" fill="#6fe0ff" opacity="0.35"/>
<circle cx="557" cy="300" r="5" fill="#ffd452" opacity="0.25"/>
<circle cx="1190" cy="498" r="3" fill="#6fe0ff" opacity="0.5"/>
<path d="M596 728 L603 749 L624 756 L603 763 L596 784 L589 763 L568 756 L589 749Z" fill="#fff" opacity=".22"/>
<path d="M328 187 L335 210 L358 217 L335 224 L328 247 L321 224 L298 217 L321 210Z" fill="#fff" opacity=".22"/>
<path d="M901 228 L907 246 L925 252 L907 258 L901 276 L895 258 L877 252 L895 246Z" fill="#fff" opacity=".22"/>
<path d="M1339 629 L1345 649 L1365 655 L1345 661 L1339 681 L1333 661 L1313 655 L1333 649Z" fill="#fff" opacity=".22"/>
<path d="M79 441 L86 464 L109 471 L86 478 L79 501 L72 478 L49 471 L72 464Z" fill="#fff" opacity=".22"/>
<path d="M1217 639 L1221 653 L1235 657 L1221 661 L1217 675 L1213 661 L1199 657 L1213 653Z" fill="#fff" opacity=".22"/>
<path d="M1132 333 L1136 345 L1148 349 L1136 353 L1132 365 L1128 353 L1116 349 L1128 345Z" fill="#fff" opacity=".22"/>
<path d="M632 241 L639 264 L662 271 L639 278 L632 301 L625 278 L602 271 L625 264Z" fill="#fff" opacity=".22"/>
<path d="M326 119 L331 134 L346 139 L331 144 L326 159 L321 144 L306 139 L321 134Z" fill="#fff" opacity=".22"/>
<path d="M728 180 L733 195 L748 200 L733 205 L728 220 L723 205 L708 200 L723 195Z" fill="#fff" opacity=".22"/>
<path d="M1246 327 L1251 342 L1266 347 L1251 352 L1246 367 L1241 352 L1226 347 L1241 342Z" fill="#fff" opacity=".22"/>
<path d="M996 214 L1000 228 L1014 232 L1000 236 L996 250 L992 236 L978 232 L992 228Z" fill="#fff" opacity=".22"/>
<path d="M775 680 L783 704 L807 712 L783 720 L775 744 L767 720 L743 712 L767 704Z" fill="#fff" opacity=".22"/>
<path d="M973 593 L980 616 L1003 623 L980 630 L973 653 L966 630 L943 623 L966 616Z" fill="#fff" opacity=".22"/>
<path d="M678 157 L682 169 L694 173 L682 177 L678 189 L674 177 L662 173 L674 169Z" fill="#fff" opacity=".22"/>
<path d="M45 440 L50 455 L65 460 L50 465 L45 480 L40 465 L25 460 L40 455Z" fill="#fff" opacity=".22"/>
<path d="M1039 504 L1046 527 L1069 534 L1046 541 L1039 564 L1032 541 L1009 534 L1032 527Z" fill="#fff" opacity=".22"/>
<path d="M92 155 L99 176 L120 183 L99 190 L92 211 L85 190 L64 183 L85 176Z" fill="#fff" opacity=".22"/>
<!-- SPORTS detailed 3D object layer -->
<g transform="translate(30 360)"><rect width="270" height="155" rx="20" fill="#233548"/><rect x="18" y="18" width="234" height="90" fill="#122333"/><text x="135" y="75" text-anchor="middle" font-size="42" font-family="Arial" font-weight="900" fill="#fff">1  2  3</text><path d="M52 120 H218" stroke="#ffd452" stroke-width="10"/></g>
<g transform="translate(1130 360)"><rect width="270" height="155" rx="20" fill="#233548"/><rect x="18" y="18" width="234" height="90" fill="#122333"/><text x="135" y="75" text-anchor="middle" font-size="42" font-family="Arial" font-weight="900" fill="#fff">GO!</text><path d="M52 120 H218" stroke="#55cf7e" stroke-width="10"/></g>
<g transform="translate(580 790)"><circle r="36" fill="#f2d05e"/><path d="M-20 -5 L0 -20 L20 -5 L20 15 H-20Z" fill="#fff"/><rect x="-3" y="24" width="6" height="18" fill="#8c5d38"/></g>
<g transform="translate(1010 735)"><rect width="90" height="32" rx="12" fill="#f3f5f8"/><circle cx="18" cy="16" r="9" fill="#f15e62"/><circle cx="72" cy="16" r="9" fill="#2d8cff"/></g>

<!-- SPORTS: detailed character and prop pass for a hand-designed 3D game background -->
<g transform="translate(245 565) scale(0.98 0.98)">
<ellipse cx="0" cy="172" rx="66" ry="16" fill="#101522" opacity=".25"/>
<path d="M-42 65 Q0 35 42 65 L58 142 Q0 171 -58 142Z" fill="#55c26f" stroke="#fff" stroke-opacity=".18" stroke-width="4"/>
<path d="M-18 135 L-60 205" stroke="#2d6ca3" stroke-width="20" stroke-linecap="round"/>
<path d="M18 135 L60 205" stroke="#2d6ca3" stroke-width="20" stroke-linecap="round"/>
<ellipse cx="-64" cy="210" rx="22" ry="10" fill="#222a35"/><ellipse cx="64" cy="210" rx="22" ry="10" fill="#222a35"/>
<path d="M-42 82 Q-82 108 -97 139" stroke="#dca581" stroke-width="14" stroke-linecap="round"/><path d="M42 82 Q82 108 97 139" stroke="#dca581" stroke-width="14" stroke-linecap="round"/>
<circle cx="0" cy="16" r="52" fill="#dca581" stroke="#fff" stroke-opacity=".25" stroke-width="4"/>
<path d="M-47 0 Q0 -53 47 0 Q18 -15 -18 -10Z" fill="#312b29"/>
<circle cx="-18" cy="20" r="5" fill="#23303a"/><circle cx="18" cy="20" r="5" fill="#23303a"/>
<path d="M-15 43 Q0 54 15 43" stroke="#6b4038" stroke-width="5" fill="none" stroke-linecap="round"/>
<path d="M-35 83 Q0 97 35 83" stroke="#ffd452" stroke-width="10" fill="none"/>
<path d="M42 78 Q92 40 128 60" stroke="#dca581" stroke-width="14" stroke-linecap="round"/>
<circle cx="132" cy="57" r="9" fill="#dca581"/>
</g>
<g transform="translate(1190 565) scale(0.95 0.95)">
<ellipse cx="0" cy="172" rx="66" ry="16" fill="#101522" opacity=".25"/>
<path d="M-42 65 Q0 35 42 65 L58 142 Q0 171 -58 142Z" fill="#e75b62" stroke="#fff" stroke-opacity=".18" stroke-width="4"/>
<path d="M-18 135 L-60 205" stroke="#3a3a5f" stroke-width="20" stroke-linecap="round"/>
<path d="M18 135 L60 205" stroke="#3a3a5f" stroke-width="20" stroke-linecap="round"/>
<ellipse cx="-64" cy="210" rx="22" ry="10" fill="#222a35"/><ellipse cx="64" cy="210" rx="22" ry="10" fill="#222a35"/>
<path d="M-42 82 Q-82 108 -97 139" stroke="#f2c4a4" stroke-width="14" stroke-linecap="round"/><path d="M42 82 Q82 108 97 139" stroke="#f2c4a4" stroke-width="14" stroke-linecap="round"/>
<circle cx="0" cy="16" r="52" fill="#f2c4a4" stroke="#fff" stroke-opacity=".25" stroke-width="4"/>
<path d="M-47 0 Q0 -53 47 0 Q18 -15 -18 -10Z" fill="#40302a"/>
<circle cx="-18" cy="20" r="5" fill="#23303a"/><circle cx="18" cy="20" r="5" fill="#23303a"/>
<path d="M-15 43 Q0 54 15 43" stroke="#6b4038" stroke-width="5" fill="none" stroke-linecap="round"/>
<path d="M-35 83 Q0 97 35 83" stroke="#fff" stroke-width="10" fill="none"/>
<path d="M-42 78 Q-95 45 -125 70" stroke="#f2c4a4" stroke-width="14" stroke-linecap="round"/>
<path d="M-134 68 l18 -9 l-7 19" fill="#fff"/>
</g>
<g transform="translate(610 690)"><rect width="220" height="105" rx="14" fill="#223548"/><text x="110" y="66" text-anchor="middle" font-size="48" font-family="Arial" font-weight="900" fill="#fff">1000</text></g>
</svg>