<svg xmlns="http://www.w3.org/2000/svg" viewBox="0 0 1440 900" preserveAspectRatio="xMidYMid slice">
<defs><linearGradient id="study-bg" x1="0" y1="0" x2="0" y2="1"><stop stop-color="#d6e4ec"/><stop offset=".56" stop-color="#b7c2aa"/><stop offset="1" stop-color="#7a6247"/></linearGradient>
<linearGradient id="study-hill" x1="0" y1="0" x2="1" y2="1"><stop stop-color="#ffffff" stop-opacity=".92"/><stop offset="1" stop-color="#cfd8e6" stop-opacity=".95"/></linearGradient>
<linearGradient id="study-shadow" x1="0" y1="0" x2="0" y2="1"><stop stop-color="#000" stop-opacity=".04"/><stop offset="1" stop-color="#000" stop-opacity=".28"/></linearGradient>
<filter id="study-soft"><feGaussianBlur stdDeviation="18"/></filter>
<filter id="study-shadow"><feDropShadow dx="0" dy="14" stdDeviation="10" flood-opacity=".18"/></filter></defs>
<rect width="1440" height="900" fill="url(#study-bg)"/>
<rect y="0" width="1440" height="900" fill="#d8e0dd"/><rect y="0" width="1440" height="380" fill="#eef2ef"/><path d="M0 610 Q250 530 500 610 T1000 600 T1440 610 L1440 900 L0 900Z" fill="#8d6d4d"/><rect x="110" y="90" width="360" height="230" rx="12" fill="#b8d7e9" stroke="#7a8d9b" stroke-width="10"/><rect x="540" y="70" width="320" height="250" rx="8" fill="#7c583b"/><rect x="570" y="105" width="260" height="190" fill="#f3efe8"/>
<g transform="translate(210 660)"><rect x="0" y="80" width="310" height="24" rx="12" fill="#5e402c"/><rect x="45" y="44" width="90" height="22" rx="6" transform="rotate(-8 45 44)" fill="#e04e5c"/><rect x="110" y="28" width="100" height="24" rx="6" transform="rotate(4 110 28)" fill="#4c8ed1"/><rect x="184" y="50" width="90" height="22" rx="6" transform="rotate(-3 184 50)" fill="#e9b74c"/><path d="M260 80 Q280 10 330 -35" stroke="#6a5444" stroke-width="10" fill="none"/><path d="M320 -60 L380 -30 L345 15 L295 -15Z" fill="#f7e6ac"/></g><g transform="translate(720 630) rotate(-5)"><rect x="0" y="0" width="350" height="210" rx="8" fill="#fff"/><path d="M25 30 H325 M25 60 H325 M25 90 H325 M25 120 H250 M25 150 H290" stroke="#c9d6e2" stroke-width="4"/></g>
</svg>